# xmcd
#
# Track frame offsets:
#	200
#	14512
#	29147
#	42487
#	57437
#	72145
#	86670
#	100162
#	115352
#	130377
#	145505
#	159990
#	175247
#	189945
#	204432
#	218957
#	234530
#
# Disc length: 3327 seconds
#
# Revision: 1
# Processed by: cddbd v1.5.1PL0 Copyright (c) Steve Scherf et al.
# Submitted via: audiograbber 1.83.01
#
DISCID=f40cfd11
DTITLE=Darby and Tarlton - On The Banks Of A Lonely River
DYEAR=1994
DGENRE=Country
TTITLE0=Lonesome Railroad
TTITLE1=Frankie Dean
TTITLE2=Down in Florida on a Hog
TTITLE3=Roy Dixon
TTITLE4=Little Bessie
TTITLE5=I Left Her at the River
TTITLE6=Captain Won't You Let Me Go Home
TTITLE7=Lowe Bonnie
TTITLE8=Maple on the Hill
TTITLE9=The Rainbow Division
TTITLE10=New Birmingham Jail
TTITLE11=After the Sinking of the Titanic
TTITLE12=Lonesome in the Pines
TTITLE13=The Black Sheep
TTITLE14=Little Ola 
TTITLE15=On the Banks of a Lonely River
TTITLE16=Lonesome Frisco Line
EXTD=County CD-3503
EXTT0=
EXTT1=
EXTT2=
EXTT3=
EXTT4=
EXTT5=
EXTT6=
EXTT7=
EXTT8=
EXTT9=
EXTT10=
EXTT11=
EXTT12=
EXTT13=
EXTT14=
EXTT15=
EXTT16=
PLAYORDER=
